<?xml version="1.0" encoding="UTF-8" standalone="no"?>
<!DOCTYPE svg PUBLIC "-//W3C//DTD SVG 1.1//EN"
 "http://www.w3.org/Graphics/SVG/1.1/DTD/svg11.dtd">
<!-- Generated by graphviz version 2.26.3 (20100126.1600)
 -->
<!-- Title: Transcompilation Pages: 1 -->
<svg width="678pt" height="290pt"
 viewBox="0.00 0.00 678.00 290.00" xmlns="http://www.w3.org/2000/svg" xmlns:xlink="http://www.w3.org/1999/xlink">
<g id="graph1" class="graph" transform="scale(1 1) rotate(0) translate(4 286)">
<title>Transcompilation</title>
<polygon fill="white" stroke="white" points="-4,5 -4,-286 675,-286 675,5 -4,5"/>
<!-- Java -->
<g id="node1" class="node"><title>Java</title>
<ellipse fill="none" stroke="black" cx="204" cy="-190" rx="27" ry="18"/>
<text text-anchor="middle" x="204" y="-186.7" font-family="Times Roman,serif" font-size="12.00">Java</text>
</g>
<!-- Java bytecode -->
<g id="node3" class="node"><title>Java bytecode</title>
<polygon fill="none" stroke="black" points="224,-122 126,-122 126,-86 224,-86 224,-122"/>
<text text-anchor="middle" x="175" y="-100.7" font-family="Times Roman,serif" font-size="12.00">Java bytecode</text>
</g>
<!-- Java&#45;&gt;Java bytecode -->
<g id="edge2" class="edge"><title>Java&#45;&gt;Java bytecode</title>
<path fill="none" stroke="black" d="M199.471,-171.784C196.953,-162.233 193.604,-150.39 190,-140 189.043,-137.241 187.983,-134.391 186.881,-131.557"/>
<polygon fill="black" stroke="black" points="190.068,-130.1 183.067,-122.148 183.58,-132.73 190.068,-130.1"/>
</g>
<!-- Machine code -->
<g id="node7" class="node"><title>Machine code</title>
<polygon fill="none" stroke="black" points="351,-36 255,-36 255,-1.77636e-14 351,-3.55271e-15 351,-36"/>
<text text-anchor="middle" x="303" y="-14.7" font-family="Times Roman,serif" font-size="12.00">Machine code</text>
</g>
<!-- Java&#45;&gt;Machine code -->
<g id="edge6" class="edge"><title>Java&#45;&gt;Machine code</title>
<path fill="none" stroke="black" d="M213.673,-173.195C230.823,-143.398 266.7,-81.0675 287.388,-45.1246"/>
<polygon fill="black" stroke="black" points="290.591,-46.5759 292.546,-36.163 284.524,-43.0839 290.591,-46.5759"/>
<text text-anchor="middle" x="271.5" y="-101.5" font-family="Times Roman,serif" font-size="10.00">GCJ</text>
</g>
<!-- Objective&#45;C -->
<g id="node9" class="node"><title>Objective&#45;C</title>
<ellipse fill="none" stroke="black" cx="54" cy="-104" rx="53.9452" ry="18"/>
<text text-anchor="middle" x="54" y="-100.7" font-family="Times Roman,serif" font-size="12.00">Objective&#45;C</text>
</g>
<!-- Java&#45;&gt;Objective&#45;C -->
<g id="edge8" class="edge"><title>Java&#45;&gt;Objective&#45;C</title>
<path fill="none" stroke="black" d="M183.458,-178.222C159.462,-164.465 119.33,-141.456 90.0991,-124.697"/>
<polygon fill="black" stroke="black" points="91.8235,-121.651 81.4073,-119.714 88.3418,-127.724 91.8235,-121.651"/>
<text text-anchor="middle" x="152" y="-144.5" font-family="Times Roman,serif" font-size="10.00">j2objc</text>
</g>
<!-- JavaScript -->
<g id="node11" class="node"><title>JavaScript</title>
<polygon fill="none" stroke="black" points="501,-122 427,-122 427,-86 501,-86 501,-122"/>
<text text-anchor="middle" x="464" y="-100.7" font-family="Times Roman,serif" font-size="12.00">JavaScript</text>
</g>
<!-- Java&#45;&gt;JavaScript -->
<g id="edge10" class="edge"><title>Java&#45;&gt;JavaScript</title>
<path fill="none" stroke="black" d="M225.491,-178.69C230.218,-176.362 235.236,-174.01 240,-172 279.888,-155.174 290.535,-152.442 332,-140 363.18,-130.644 371.605,-130.608 403,-122 407.616,-120.734 412.417,-119.381 417.209,-118.007"/>
<polygon fill="black" stroke="black" points="418.339,-121.323 426.969,-115.176 416.389,-114.6 418.339,-121.323"/>
<text text-anchor="middle" x="343" y="-144.5" font-family="Times Roman,serif" font-size="10.00">GWT</text>
</g>
<!-- Scala -->
<g id="node4" class="node"><title>Scala</title>
<ellipse fill="none" stroke="black" cx="128" cy="-190" rx="30.0465" ry="18"/>
<text text-anchor="middle" x="128" y="-186.7" font-family="Times Roman,serif" font-size="12.00">Scala</text>
</g>
<!-- Scala&#45;&gt;Java bytecode -->
<g id="edge4" class="edge"><title>Scala&#45;&gt;Java bytecode</title>
<path fill="none" stroke="black" d="M130.995,-171.62C133.113,-161.805 136.568,-149.769 142,-140 143.938,-136.515 146.277,-133.095 148.806,-129.835"/>
<polygon fill="black" stroke="black" points="151.558,-132.001 155.358,-122.111 146.22,-127.472 151.558,-132.001"/>
</g>
<!-- Objective&#45;C&#45;&gt;Machine code -->
<g id="edge18" class="edge"><title>Objective&#45;C&#45;&gt;Machine code</title>
<path fill="none" stroke="black" d="M91.0247,-90.8036C119.651,-80.6393 160.29,-66.2937 196,-54 211.884,-48.5317 229.126,-42.6896 245.037,-37.337"/>
<polygon fill="black" stroke="black" points="246.382,-40.5773 254.747,-34.0752 244.153,-33.9417 246.382,-40.5773"/>
<text text-anchor="middle" x="221" y="-58.5" font-family="Times Roman,serif" font-size="10.00">GCC/clang</text>
</g>
<!-- C++ -->
<g id="node12" class="node"><title>C++</title>
<ellipse fill="none" stroke="black" cx="277" cy="-190" rx="28.0958" ry="18"/>
<text text-anchor="middle" x="277" y="-186.7" font-family="Times Roman,serif" font-size="12.00">C++</text>
</g>
<!-- C++&#45;&gt;Java bytecode -->
<g id="edge16" class="edge"><title>C++&#45;&gt;Java bytecode</title>
<path fill="none" stroke="black" d="M259.697,-175.411C244.615,-162.695 222.415,-143.977 204.527,-128.896"/>
<polygon fill="black" stroke="black" points="206.554,-126.027 196.653,-122.256 202.042,-131.378 206.554,-126.027"/>
<text text-anchor="middle" x="243.5" y="-144.5" font-family="Times Roman,serif" font-size="10.00">Cibyl</text>
</g>
<!-- C++&#45;&gt;Machine code -->
<g id="edge12" class="edge"><title>C++&#45;&gt;Machine code</title>
<path fill="none" stroke="black" d="M298.987,-178.733C312.972,-171.058 329.151,-161.05 333,-154 351.841,-119.489 334.64,-73.9455 319.584,-45.3108"/>
<polygon fill="black" stroke="black" points="322.506,-43.3598 314.616,-36.2886 316.374,-46.7365 322.506,-43.3598"/>
<text text-anchor="middle" x="367" y="-101.5" font-family="Times Roman,serif" font-size="10.00">GCC/Clang</text>
</g>
<!-- C++&#45;&gt;JavaScript -->
<g id="edge14" class="edge"><title>C++&#45;&gt;JavaScript</title>
<path fill="none" stroke="black" d="M299.196,-178.915C304.047,-176.573 309.174,-174.158 314,-172 333.288,-163.374 339.577,-164.345 358,-154 367.146,-148.864 367.864,-145.154 377,-140 389.602,-132.89 403.89,-126.393 417.192,-120.935"/>
<polygon fill="black" stroke="black" points="418.678,-124.111 426.665,-117.15 416.081,-117.61 418.678,-124.111"/>
<text text-anchor="middle" x="404.5" y="-144.5" font-family="Times Roman,serif" font-size="10.00">Emscripten</text>
</g>
<!-- CLR -->
<g id="node28" class="node"><title>CLR</title>
<polygon fill="none" stroke="black" points="583,-122 529,-122 529,-86 583,-86 583,-122"/>
<text text-anchor="middle" x="556" y="-100.7" font-family="Times Roman,serif" font-size="12.00">CLR</text>
</g>
<!-- C++&#45;&gt;CLR -->
<g id="edge36" class="edge"><title>C++&#45;&gt;CLR</title>
<path fill="none" stroke="black" d="M298.46,-178.194C303.445,-175.84 308.813,-173.602 314,-172 366.367,-155.822 383.186,-168.653 436,-154 464.863,-145.992 496.05,-132.849 519.395,-122.048"/>
<polygon fill="black" stroke="black" points="521.009,-125.157 528.571,-117.736 518.032,-118.821 521.009,-125.157"/>
</g>
<!-- CoffeeScript -->
<g id="node17" class="node"><title>CoffeeScript</title>
<ellipse fill="none" stroke="black" cx="379" cy="-190" rx="56.0446" ry="18"/>
<text text-anchor="middle" x="379" y="-186.7" font-family="Times Roman,serif" font-size="12.00">CoffeeScript</text>
</g>
<!-- CoffeeScript&#45;&gt;JavaScript -->
<g id="edge20" class="edge"><title>CoffeeScript&#45;&gt;JavaScript</title>
<path fill="none" stroke="black" d="M409.198,-174.766C418.526,-169.105 428.348,-162.067 436,-154 442.299,-147.359 447.687,-139.034 452.005,-131.093"/>
<polygon fill="black" stroke="black" points="455.178,-132.573 456.573,-122.07 448.933,-129.411 455.178,-132.573"/>
</g>
<!-- Dart -->
<g id="node19" class="node"><title>Dart</title>
<ellipse fill="none" stroke="black" cx="480" cy="-190" rx="26.8013" ry="18"/>
<text text-anchor="middle" x="480" y="-186.7" font-family="Times Roman,serif" font-size="12.00">Dart</text>
</g>
<!-- Dart&#45;&gt;JavaScript -->
<g id="edge22" class="edge"><title>Dart&#45;&gt;JavaScript</title>
<path fill="none" stroke="black" d="M476.607,-171.762C474.464,-160.246 471.653,-145.135 469.229,-132.106"/>
<polygon fill="black" stroke="black" points="472.658,-131.403 467.388,-122.212 465.777,-132.684 472.658,-131.403"/>
</g>
<!-- Haxe -->
<g id="node21" class="node"><title>Haxe</title>
<ellipse fill="none" stroke="black" cx="464" cy="-264" rx="30.0465" ry="18"/>
<text text-anchor="middle" x="464" y="-260.7" font-family="Times Roman,serif" font-size="12.00">Haxe</text>
</g>
<!-- Haxe&#45;&gt;Java -->
<g id="edge28" class="edge"><title>Haxe&#45;&gt;Java</title>
<path fill="none" stroke="black" d="M435.109,-258.879C391.848,-250.744 308.048,-233.173 240,-208 238.132,-207.309 236.234,-206.549 234.336,-205.743"/>
<polygon fill="black" stroke="black" points="235.527,-202.439 224.978,-201.45 232.607,-208.801 235.527,-202.439"/>
</g>
<!-- Haxe&#45;&gt;JavaScript -->
<g id="edge24" class="edge"><title>Haxe&#45;&gt;JavaScript</title>
<path fill="none" stroke="black" d="M482.956,-249.916C494.931,-239.767 509.356,-224.919 516,-208 521.848,-193.107 521.131,-187.155 516,-172 510.734,-156.445 500.326,-141.649 490.196,-129.855"/>
<polygon fill="black" stroke="black" points="492.588,-127.282 483.293,-122.197 487.389,-131.968 492.588,-127.282"/>
</g>
<!-- Haxe&#45;&gt;C++ -->
<g id="edge26" class="edge"><title>Haxe&#45;&gt;C++</title>
<path fill="none" stroke="black" d="M437.687,-255.034C407.499,-244.55 356.665,-226.293 314,-208 312.178,-207.219 310.316,-206.396 308.445,-205.548"/>
<polygon fill="black" stroke="black" points="309.687,-202.265 299.146,-201.199 306.721,-208.606 309.687,-202.265"/>
</g>
<!-- C# -->
<g id="node26" class="node"><title>C#</title>
<ellipse fill="none" stroke="black" cx="601" cy="-190" rx="27" ry="18"/>
<text text-anchor="middle" x="601" y="-186.7" font-family="Times Roman,serif" font-size="12.00">C#</text>
</g>
<!-- Haxe&#45;&gt;C# -->
<g id="edge30" class="edge"><title>Haxe&#45;&gt;C#</title>
<path fill="none" stroke="black" d="M490.023,-254.772C507.237,-248.239 530.041,-238.751 549,-228 558.096,-222.842 567.485,-216.382 575.74,-210.259"/>
<polygon fill="black" stroke="black" points="578.035,-212.911 583.872,-204.069 573.795,-207.341 578.035,-212.911"/>
</g>
<!-- C#&#45;&gt;Machine code -->
<g id="edge34" class="edge"><title>C#&#45;&gt;Machine code</title>
<path fill="none" stroke="black" d="M608.735,-172.388C610.884,-166.641 612.923,-160.153 614,-154 619.476,-122.711 616.141,-106.645 592,-86 557.72,-56.6841 435.235,-35.6697 361.172,-25.3081"/>
<polygon fill="black" stroke="black" points="361.44,-21.8121 351.057,-23.9169 360.486,-28.7469 361.44,-21.8121"/>
<text text-anchor="middle" x="642.5" y="-101.5" font-family="Times Roman,serif" font-size="10.00">LLVM/Mono</text>
</g>
<!-- C#&#45;&gt;JavaScript -->
<g id="edge38" class="edge"><title>C#&#45;&gt;JavaScript</title>
<path fill="none" stroke="black" d="M581.079,-177.495C560.3,-164.451 527.235,-143.695 501.535,-127.562"/>
<polygon fill="black" stroke="black" points="503.115,-124.421 492.784,-122.069 499.393,-130.35 503.115,-124.421"/>
<text text-anchor="middle" x="558.5" y="-144.5" font-family="Times Roman,serif" font-size="10.00">Script#</text>
</g>
<!-- C#&#45;&gt;CLR -->
<g id="edge32" class="edge"><title>C#&#45;&gt;CLR</title>
<path fill="none" stroke="black" d="M603.712,-172.014C604.389,-162.089 603.829,-149.824 599,-140 596.858,-135.642 593.918,-131.616 590.573,-127.957"/>
<polygon fill="black" stroke="black" points="592.912,-125.352 583.263,-120.976 588.078,-130.414 592.912,-125.352"/>
</g>
</g>
</svg>
