<?xml version="1.0" encoding="UTF-8" standalone="no"?>
<!DOCTYPE svg PUBLIC "-//W3C//DTD SVG 1.1//EN"
 "http://www.w3.org/Graphics/SVG/1.1/DTD/svg11.dtd">
<!-- Generated by graphviz version 2.26.3 (20100126.1600)
 -->
<!-- Title: Transcompilation Pages: 1 -->
<svg width="753pt" height="570pt"
 viewBox="0.00 0.00 753.00 570.00" xmlns="http://www.w3.org/2000/svg" xmlns:xlink="http://www.w3.org/1999/xlink">
<g id="graph1" class="graph" transform="scale(1 1) rotate(0) translate(4 566)">
<title>Transcompilation</title>
<polygon fill="white" stroke="white" points="-4,5 -4,-566 750,-566 750,5 -4,5"/>
<!-- Java -->
<g id="node1" class="node"><title>Java</title>
<ellipse fill="none" stroke="black" cx="115" cy="-470" rx="27" ry="18"/>
<text text-anchor="middle" x="115" y="-466.7" font-family="Times Roman,serif" font-size="12.00">Java</text>
</g>
<!-- Java bytecode -->
<g id="node3" class="node"><title>Java bytecode</title>
<polygon fill="none" stroke="black" points="322,-402 224,-402 224,-366 322,-366 322,-402"/>
<text text-anchor="middle" x="273" y="-380.7" font-family="Times Roman,serif" font-size="12.00">Java bytecode</text>
</g>
<!-- Java&#45;&gt;Java bytecode -->
<g id="edge2" class="edge"><title>Java&#45;&gt;Java bytecode</title>
<path fill="none" stroke="black" d="M135.981,-458.58C160.021,-445.495 200.034,-423.716 230.631,-407.061"/>
<polygon fill="black" stroke="black" points="232.687,-409.928 239.797,-402.073 229.34,-403.779 232.687,-409.928"/>
</g>
<!-- Machine code -->
<g id="node7" class="node"><title>Machine code</title>
<polygon fill="none" stroke="black" points="147,-122 51,-122 51,-86 147,-86 147,-122"/>
<text text-anchor="middle" x="99" y="-100.7" font-family="Times Roman,serif" font-size="12.00">Machine code</text>
</g>
<!-- Java&#45;&gt;Machine code -->
<g id="edge6" class="edge"><title>Java&#45;&gt;Machine code</title>
<path fill="none" stroke="black" d="M95.4119,-457.368C75.0125,-442.503 46,-415.776 46,-384 46,-384 46,-384 46,-190 46,-167.448 59.3716,-145.854 72.682,-129.946"/>
<polygon fill="black" stroke="black" points="75.5579,-131.977 79.5657,-122.17 70.3166,-127.337 75.5579,-131.977"/>
<text text-anchor="middle" x="54.5" y="-273.5" font-family="Times Roman,serif" font-size="10.00">GCJ</text>
</g>
<!-- Objective&#45;C -->
<g id="node9" class="node"><title>Objective&#45;C</title>
<ellipse fill="none" stroke="black" cx="115" cy="-330" rx="53.9452" ry="18"/>
<text text-anchor="middle" x="115" y="-326.7" font-family="Times Roman,serif" font-size="12.00">Objective&#45;C</text>
</g>
<!-- Java&#45;&gt;Objective&#45;C -->
<g id="edge8" class="edge"><title>Java&#45;&gt;Objective&#45;C</title>
<path fill="none" stroke="black" d="M115,-451.984C115,-428.383 115,-386.72 115,-358.737"/>
<polygon fill="black" stroke="black" points="118.5,-358.391 115,-348.391 111.5,-358.391 118.5,-358.391"/>
<text text-anchor="middle" x="129" y="-424.5" font-family="Times Roman,serif" font-size="10.00">j2objc</text>
</g>
<!-- JavaScript -->
<g id="node11" class="node"><title>JavaScript</title>
<polygon fill="none" stroke="black" points="471,-36 397,-36 397,-1.77636e-14 471,-3.55271e-15 471,-36"/>
<text text-anchor="middle" x="434" y="-14.7" font-family="Times Roman,serif" font-size="12.00">JavaScript</text>
</g>
<!-- Java&#45;&gt;JavaScript -->
<g id="edge10" class="edge"><title>Java&#45;&gt;JavaScript</title>
<path fill="none" stroke="black" d="M89.7628,-463.362C55.9106,-452.755 0,-428.501 0,-384 0,-384 0,-384 0,-104 0,-64.8944 274.629,-33.5845 386.964,-22.4132"/>
<polygon fill="black" stroke="black" points="387.388,-25.8885 396.997,-21.4262 386.703,-18.9221 387.388,-25.8885"/>
<text text-anchor="middle" x="11" y="-230.5" font-family="Times Roman,serif" font-size="10.00">GWT</text>
</g>
<!-- XMLVM -->
<g id="node34" class="node"><title>XMLVM</title>
<ellipse fill="none" stroke="black" cx="308" cy="-276" rx="37.194" ry="18"/>
<text text-anchor="middle" x="308" y="-272.7" font-family="Times Roman,serif" font-size="12.00">XMLVM</text>
</g>
<!-- Java bytecode&#45;&gt;XMLVM -->
<g id="edge44" class="edge"><title>Java bytecode&#45;&gt;XMLVM</title>
<path fill="none" stroke="black" d="M273.72,-365.679C277.549,-348.381 285.788,-322.241 293.455,-302.639"/>
<polygon fill="black" stroke="black" points="296.714,-303.917 297.268,-293.337 290.237,-301.262 296.714,-303.917"/>
</g>
<!-- Scala -->
<g id="node4" class="node"><title>Scala</title>
<ellipse fill="none" stroke="black" cx="273" cy="-470" rx="30.0465" ry="18"/>
<text text-anchor="middle" x="273" y="-466.7" font-family="Times Roman,serif" font-size="12.00">Scala</text>
</g>
<!-- Scala&#45;&gt;Java bytecode -->
<g id="edge4" class="edge"><title>Scala&#45;&gt;Java bytecode</title>
<path fill="none" stroke="black" d="M273,-451.762C273,-440.36 273,-425.434 273,-412.494"/>
<polygon fill="black" stroke="black" points="276.5,-412.212 273,-402.212 269.5,-412.212 276.5,-412.212"/>
</g>
<!-- Objective&#45;C&#45;&gt;Machine code -->
<g id="edge18" class="edge"><title>Objective&#45;C&#45;&gt;Machine code</title>
<path fill="none" stroke="black" d="M113.718,-311.888C110.938,-272.629 104.341,-179.445 101.005,-132.324"/>
<polygon fill="black" stroke="black" points="104.486,-131.927 100.288,-122.199 97.5034,-132.421 104.486,-131.927"/>
<text text-anchor="middle" x="134" y="-230.5" font-family="Times Roman,serif" font-size="10.00">GCC/clang</text>
</g>
<!-- C++ -->
<g id="node12" class="node"><title>C++</title>
<ellipse fill="none" stroke="black" cx="187" cy="-190" rx="28.0958" ry="18"/>
<text text-anchor="middle" x="187" y="-186.7" font-family="Times Roman,serif" font-size="12.00">C++</text>
</g>
<!-- C++&#45;&gt;Java bytecode -->
<g id="edge16" class="edge"><title>C++&#45;&gt;Java bytecode</title>
<path fill="none" stroke="black" d="M194.758,-207.501C209.754,-241.328 242.818,-315.914 260.79,-356.457"/>
<polygon fill="black" stroke="black" points="257.657,-358.025 264.909,-365.749 264.056,-355.189 257.657,-358.025"/>
<text text-anchor="middle" x="243.5" y="-273.5" font-family="Times Roman,serif" font-size="10.00">Cibyl</text>
</g>
<!-- C++&#45;&gt;Machine code -->
<g id="edge12" class="edge"><title>C++&#45;&gt;Machine code</title>
<path fill="none" stroke="black" d="M163.349,-180.209C150.776,-174.101 135.743,-165.255 125,-154 118.853,-147.559 113.79,-139.38 109.818,-131.511"/>
<polygon fill="black" stroke="black" points="112.889,-129.813 105.515,-122.206 106.536,-132.751 112.889,-129.813"/>
<text text-anchor="middle" x="151" y="-144.5" font-family="Times Roman,serif" font-size="10.00">GCC/Clang</text>
</g>
<!-- C++&#45;&gt;JavaScript -->
<g id="edge14" class="edge"><title>C++&#45;&gt;JavaScript</title>
<path fill="none" stroke="black" d="M185.719,-171.726C185.089,-149.486 187.111,-111.726 205,-86 221.146,-62.7812 233.587,-64.1075 260,-54 301.3,-38.1956 350.906,-28.8029 386.566,-23.5968"/>
<polygon fill="black" stroke="black" points="387.28,-27.031 396.697,-22.1754 386.308,-20.0989 387.28,-27.031"/>
<text text-anchor="middle" x="232.5" y="-101.5" font-family="Times Roman,serif" font-size="10.00">Emscripten</text>
</g>
<!-- CLR -->
<g id="node28" class="node"><title>CLR</title>
<polygon fill="none" stroke="black" points="393,-122 339,-122 339,-86 393,-86 393,-122"/>
<text text-anchor="middle" x="366" y="-100.7" font-family="Times Roman,serif" font-size="12.00">CLR</text>
</g>
<!-- C++&#45;&gt;CLR -->
<g id="edge36" class="edge"><title>C++&#45;&gt;CLR</title>
<path fill="none" stroke="black" d="M209.67,-179.108C239.896,-164.586 293.746,-138.714 329.67,-121.455"/>
<polygon fill="black" stroke="black" points="331.343,-124.534 338.841,-117.048 328.312,-118.224 331.343,-124.534"/>
</g>
<!-- CoffeeScript -->
<g id="node17" class="node"><title>CoffeeScript</title>
<ellipse fill="none" stroke="black" cx="617" cy="-104" rx="56.0446" ry="18"/>
<text text-anchor="middle" x="617" y="-100.7" font-family="Times Roman,serif" font-size="12.00">CoffeeScript</text>
</g>
<!-- CoffeeScript&#45;&gt;JavaScript -->
<g id="edge20" class="edge"><title>CoffeeScript&#45;&gt;JavaScript</title>
<path fill="none" stroke="black" d="M596.95,-87.1001C583.508,-76.4398 565.027,-63.029 547,-54 526.196,-43.58 501.739,-35.3444 480.909,-29.3951"/>
<polygon fill="black" stroke="black" points="481.577,-25.9487 471.006,-26.6586 479.713,-32.6958 481.577,-25.9487"/>
</g>
<!-- Dart -->
<g id="node19" class="node"><title>Dart</title>
<ellipse fill="none" stroke="black" cx="718" cy="-104" rx="26.8013" ry="18"/>
<text text-anchor="middle" x="718" y="-100.7" font-family="Times Roman,serif" font-size="12.00">Dart</text>
</g>
<!-- Dart&#45;&gt;JavaScript -->
<g id="edge22" class="edge"><title>Dart&#45;&gt;JavaScript</title>
<path fill="none" stroke="black" d="M696.969,-92.6904C692.126,-90.3105 686.945,-87.9371 682,-86 614.138,-59.4151 531.974,-39.0834 481.346,-27.8407"/>
<polygon fill="black" stroke="black" points="481.864,-24.3712 471.347,-25.6475 480.364,-31.2087 481.864,-24.3712"/>
</g>
<!-- Haxe -->
<g id="node21" class="node"><title>Haxe</title>
<ellipse fill="none" stroke="black" cx="323" cy="-544" rx="30.0465" ry="18"/>
<text text-anchor="middle" x="323" y="-540.7" font-family="Times Roman,serif" font-size="12.00">Haxe</text>
</g>
<!-- Haxe&#45;&gt;Java -->
<g id="edge28" class="edge"><title>Haxe&#45;&gt;Java</title>
<path fill="none" stroke="black" d="M293.481,-540.387C261.877,-535.768 210.777,-526.105 170,-508 159.55,-503.36 148.998,-496.664 139.97,-490.181"/>
<polygon fill="black" stroke="black" points="141.94,-487.285 131.834,-484.105 137.752,-492.893 141.94,-487.285"/>
</g>
<!-- Haxe&#45;&gt;JavaScript -->
<g id="edge24" class="edge"><title>Haxe&#45;&gt;JavaScript</title>
<path fill="none" stroke="black" d="M352.642,-539.886C410.529,-531.016 533,-507.786 533,-470 533,-470 533,-470 533,-104 533,-73.5533 505.984,-51.448 480.177,-37.2778"/>
<polygon fill="black" stroke="black" points="481.634,-34.091 471.146,-32.5959 478.413,-40.3056 481.634,-34.091"/>
</g>
<!-- Haxe&#45;&gt;C++ -->
<g id="edge26" class="edge"><title>Haxe&#45;&gt;C++</title>
<path fill="none" stroke="black" d="M293.181,-541.272C252.338,-535.71 184,-519.073 184,-470 184,-470 184,-470 184,-276 184,-256.759 184.759,-235.112 185.514,-218.349"/>
<polygon fill="black" stroke="black" points="189.022,-218.269 186.001,-208.113 182.029,-217.936 189.022,-218.269"/>
</g>
<!-- C# -->
<g id="node26" class="node"><title>C#</title>
<ellipse fill="none" stroke="black" cx="478" cy="-190" rx="27" ry="18"/>
<text text-anchor="middle" x="478" y="-186.7" font-family="Times Roman,serif" font-size="12.00">C#</text>
</g>
<!-- Haxe&#45;&gt;C# -->
<g id="edge30" class="edge"><title>Haxe&#45;&gt;C#</title>
<path fill="none" stroke="black" d="M352.69,-541.391C393.786,-535.967 463,-519.486 463,-470 463,-470 463,-470 463,-276 463,-256.481 466.796,-234.835 470.569,-218.143"/>
<polygon fill="black" stroke="black" points="474.082,-218.501 473.005,-207.961 467.274,-216.872 474.082,-218.501"/>
</g>
<!-- C#&#45;&gt;Machine code -->
<g id="edge34" class="edge"><title>C#&#45;&gt;Machine code</title>
<path fill="none" stroke="black" d="M451.885,-184.576C398.579,-173.434 273.457,-146.916 169,-122 165.128,-121.077 161.142,-120.106 157.128,-119.113"/>
<polygon fill="black" stroke="black" points="157.694,-115.647 147.144,-116.616 155.996,-122.438 157.694,-115.647"/>
<text text-anchor="middle" x="331.5" y="-144.5" font-family="Times Roman,serif" font-size="10.00">LLVM/Mono</text>
</g>
<!-- C#&#45;&gt;JavaScript -->
<g id="edge38" class="edge"><title>C#&#45;&gt;JavaScript</title>
<path fill="none" stroke="black" d="M481.768,-171.823C483.164,-162.283 483.98,-150.438 482,-140 475.589,-106.194 460.012,-69.7719 448.329,-45.6113"/>
<polygon fill="black" stroke="black" points="451.326,-43.7753 443.756,-36.3622 445.051,-46.8777 451.326,-43.7753"/>
<text text-anchor="middle" x="495.5" y="-101.5" font-family="Times Roman,serif" font-size="10.00">Script#</text>
</g>
<!-- C#&#45;&gt;CLR -->
<g id="edge32" class="edge"><title>C#&#45;&gt;CLR</title>
<path fill="none" stroke="black" d="M476.944,-171.841C475.439,-161.366 471.953,-148.607 464,-140 448.216,-122.917 423.633,-113.914 403.037,-109.184"/>
<polygon fill="black" stroke="black" points="403.5,-105.706 393.002,-107.134 402.099,-112.565 403.5,-105.706"/>
</g>
<!-- CLR&#45;&gt;JavaScript -->
<g id="edge40" class="edge"><title>CLR&#45;&gt;JavaScript</title>
<path fill="none" stroke="black" d="M380.421,-85.7616C389.977,-73.6756 402.664,-57.6304 413.294,-44.1874"/>
<polygon fill="black" stroke="black" points="416.143,-46.2271 419.6,-36.2121 410.652,-41.8854 416.143,-46.2271"/>
<text text-anchor="middle" x="412.5" y="-58.5" font-family="Times Roman,serif" font-size="10.00">JSIL</text>
</g>
<!-- CLR&#45;&gt;XMLVM -->
<g id="edge42" class="edge"><title>CLR&#45;&gt;XMLVM</title>
<path fill="none" stroke="black" d="M382.228,-122.07C395.028,-143.452 407.866,-179.716 395,-208 385.047,-229.882 364.189,-247.467 345.259,-259.268"/>
<polygon fill="black" stroke="black" points="343.312,-256.353 336.462,-264.434 346.857,-262.389 343.312,-256.353"/>
</g>
<!-- XMLVM&#45;&gt;Java bytecode -->
<g id="edge48" class="edge"><title>XMLVM&#45;&gt;Java bytecode</title>
<path fill="none" stroke="black" d="M307.339,-294.05C303.602,-311.051 295.533,-336.762 287.939,-356.348"/>
<polygon fill="black" stroke="black" points="284.67,-355.097 284.154,-365.679 291.157,-357.728 284.67,-355.097"/>
</g>
<!-- XMLVM&#45;&gt;JavaScript -->
<g id="edge54" class="edge"><title>XMLVM&#45;&gt;JavaScript</title>
<path fill="none" stroke="black" d="M292.515,-259.34C281.626,-246.421 267.972,-227.487 262,-208 257.312,-192.702 256.747,-187.113 262,-172 283.114,-111.256 345.324,-66.1614 388.824,-40.9607"/>
<polygon fill="black" stroke="black" points="390.548,-44.0068 397.529,-36.0368 387.101,-37.914 390.548,-44.0068"/>
</g>
<!-- XMLVM&#45;&gt;C++ -->
<g id="edge52" class="edge"><title>XMLVM&#45;&gt;C++</title>
<path fill="none" stroke="black" d="M286.923,-261.02C266.72,-246.66 236.126,-224.916 214.115,-209.272"/>
<polygon fill="black" stroke="black" points="216.027,-206.337 205.848,-203.396 211.971,-212.042 216.027,-206.337"/>
</g>
<!-- XMLVM&#45;&gt;CLR -->
<g id="edge46" class="edge"><title>XMLVM&#45;&gt;CLR</title>
<path fill="none" stroke="black" d="M327.947,-260.616C344.554,-248.825 366.661,-230.731 377,-208 388.107,-183.583 380.058,-153.218 372.746,-131.616"/>
<polygon fill="black" stroke="black" points="376.013,-130.353 369.407,-122.07 369.405,-132.665 376.013,-130.353"/>
</g>
<!-- Objective C -->
<g id="node39" class="node"><title>Objective C</title>
<ellipse fill="none" stroke="black" cx="324" cy="-190" rx="52.7972" ry="18"/>
<text text-anchor="middle" x="324" y="-186.7" font-family="Times Roman,serif" font-size="12.00">Objective C</text>
</g>
<!-- XMLVM&#45;&gt;Objective C -->
<g id="edge50" class="edge"><title>XMLVM&#45;&gt;Objective C</title>
<path fill="none" stroke="black" d="M311.393,-257.762C313.536,-246.246 316.347,-231.135 318.771,-218.106"/>
<polygon fill="black" stroke="black" points="322.223,-218.684 320.612,-208.212 315.342,-217.403 322.223,-218.684"/>
</g>
</g>
</svg>
