<?xml version="1.0" encoding="UTF-8" standalone="no"?>
<!DOCTYPE svg PUBLIC "-//W3C//DTD SVG 1.1//EN"
 "http://www.w3.org/Graphics/SVG/1.1/DTD/svg11.dtd">
<!-- Generated by graphviz version 2.26.3 (20100126.1600)
 -->
<!-- Title: Transcompilation Pages: 1 -->
<svg width="651pt" height="290pt"
 viewBox="0.00 0.00 651.04 290.00" xmlns="http://www.w3.org/2000/svg" xmlns:xlink="http://www.w3.org/1999/xlink">
<g id="graph1" class="graph" transform="scale(1 1) rotate(0) translate(4 286)">
<title>Transcompilation</title>
<polygon fill="white" stroke="white" points="-4,5 -4,-286 648.04,-286 648.04,5 -4,5"/>
<!-- Java -->
<g id="node1" class="node"><title>Java</title>
<ellipse fill="none" stroke="black" cx="134.406" cy="-190" rx="27" ry="18"/>
<text text-anchor="middle" x="134.406" y="-186.7" font-family="Times Roman,serif" font-size="12.00">Java</text>
</g>
<!-- Java bytecode -->
<g id="node3" class="node"><title>Java bytecode</title>
<polygon fill="none" stroke="black" points="255.406,-122 157.406,-122 157.406,-86 255.406,-86 255.406,-122"/>
<text text-anchor="middle" x="206.406" y="-100.7" font-family="Times Roman,serif" font-size="12.00">Java bytecode</text>
</g>
<!-- Java&#45;&gt;Java bytecode -->
<g id="edge2" class="edge"><title>Java&#45;&gt;Java bytecode</title>
<path fill="none" stroke="black" d="M137.079,-171.941C139.303,-161.755 143.303,-149.255 150.406,-140 153.749,-135.645 157.779,-131.666 162.126,-128.075"/>
<polygon fill="black" stroke="black" points="164.299,-130.82 170.214,-122.03 160.109,-125.213 164.299,-130.82"/>
</g>
<!-- Machine code -->
<g id="node7" class="node"><title>Machine code</title>
<polygon fill="none" stroke="black" points="133.406,-36 37.4061,-36 37.4061,-1.77636e-14 133.406,-3.55271e-15 133.406,-36"/>
<text text-anchor="middle" x="85.4061" y="-14.7" font-family="Times Roman,serif" font-size="12.00">Machine code</text>
</g>
<!-- Java&#45;&gt;Machine code -->
<g id="edge6" class="edge"><title>Java&#45;&gt;Machine code</title>
<path fill="none" stroke="black" d="M108.311,-184.68C77.5218,-176.851 27.704,-158.96 5.40609,-122 -12.2118,-92.7973 18.1414,-62.18 46.3805,-41.7915"/>
<polygon fill="black" stroke="black" points="48.4134,-44.641 54.6331,-36.0639 44.4222,-38.8903 48.4134,-44.641"/>
<text text-anchor="middle" x="13.9061" y="-101.5" font-family="Times Roman,serif" font-size="10.00">GCJ</text>
</g>
<!-- Objective&#45;C -->
<g id="node9" class="node"><title>Objective&#45;C</title>
<ellipse fill="none" stroke="black" cx="85.4061" cy="-104" rx="53.9452" ry="18"/>
<text text-anchor="middle" x="85.4061" y="-100.7" font-family="Times Roman,serif" font-size="12.00">Objective&#45;C</text>
</g>
<!-- Java&#45;&gt;Objective&#45;C -->
<g id="edge8" class="edge"><title>Java&#45;&gt;Objective&#45;C</title>
<path fill="none" stroke="black" d="M115.093,-176.99C107.494,-170.889 99.4055,-162.979 94.4061,-154 90.7316,-147.4 88.5083,-139.621 87.1766,-132.189"/>
<polygon fill="black" stroke="black" points="90.6191,-131.525 85.8292,-122.074 83.6804,-132.449 90.6191,-131.525"/>
<text text-anchor="middle" x="108.406" y="-144.5" font-family="Times Roman,serif" font-size="10.00">j2objc</text>
</g>
<!-- JavaScript -->
<g id="node11" class="node"><title>JavaScript</title>
<polygon fill="none" stroke="black" points="531.406,-122 457.406,-122 457.406,-86 531.406,-86 531.406,-122"/>
<text text-anchor="middle" x="494.406" y="-100.7" font-family="Times Roman,serif" font-size="12.00">JavaScript</text>
</g>
<!-- Java&#45;&gt;JavaScript -->
<g id="edge10" class="edge"><title>Java&#45;&gt;JavaScript</title>
<path fill="none" stroke="black" d="M151.093,-175.809C166.08,-163.962 189.233,-147.797 212.406,-140 308.327,-107.724 340.172,-141.879 439.406,-122 442.04,-121.472 444.723,-120.859 447.417,-120.183"/>
<polygon fill="black" stroke="black" points="448.437,-123.532 457.149,-117.504 446.579,-116.783 448.437,-123.532"/>
<text text-anchor="middle" x="223.406" y="-144.5" font-family="Times Roman,serif" font-size="10.00">GWT</text>
</g>
<!-- Scala -->
<g id="node4" class="node"><title>Scala</title>
<ellipse fill="none" stroke="black" cx="209.406" cy="-190" rx="30.0465" ry="18"/>
<text text-anchor="middle" x="209.406" y="-186.7" font-family="Times Roman,serif" font-size="12.00">Scala</text>
</g>
<!-- Scala&#45;&gt;Java bytecode -->
<g id="edge4" class="edge"><title>Scala&#45;&gt;Java bytecode</title>
<path fill="none" stroke="black" d="M208.77,-171.762C208.372,-160.36 207.851,-145.434 207.4,-132.494"/>
<polygon fill="black" stroke="black" points="210.888,-132.084 207.041,-122.212 203.892,-132.328 210.888,-132.084"/>
</g>
<!-- Objective&#45;C&#45;&gt;Machine code -->
<g id="edge18" class="edge"><title>Objective&#45;C&#45;&gt;Machine code</title>
<path fill="none" stroke="black" d="M85.4061,-85.7616C85.4061,-74.3597 85.4061,-59.4342 85.4061,-46.494"/>
<polygon fill="black" stroke="black" points="88.9062,-46.2121 85.4061,-36.2121 81.9062,-46.2121 88.9062,-46.2121"/>
<text text-anchor="middle" x="110.406" y="-58.5" font-family="Times Roman,serif" font-size="10.00">GCC/clang</text>
</g>
<!-- C++ -->
<g id="node12" class="node"><title>C++</title>
<ellipse fill="none" stroke="black" cx="316.406" cy="-190" rx="28.0958" ry="18"/>
<text text-anchor="middle" x="316.406" y="-186.7" font-family="Times Roman,serif" font-size="12.00">C++</text>
</g>
<!-- C++&#45;&gt;Java bytecode -->
<g id="edge16" class="edge"><title>C++&#45;&gt;Java bytecode</title>
<path fill="none" stroke="black" d="M293.927,-178.918C281.709,-172.42 266.64,-163.612 254.406,-154 245.371,-146.902 236.398,-138.143 228.698,-129.949"/>
<polygon fill="black" stroke="black" points="231.075,-127.361 221.745,-122.339 225.907,-132.083 231.075,-127.361"/>
<text text-anchor="middle" x="265.906" y="-144.5" font-family="Times Roman,serif" font-size="10.00">Cibyl</text>
</g>
<!-- C++&#45;&gt;Machine code -->
<g id="edge12" class="edge"><title>C++&#45;&gt;Machine code</title>
<path fill="none" stroke="black" d="M311.838,-172.075C305.12,-149.137 290.46,-109.557 264.406,-86 230.565,-55.4033 181.566,-38.0692 143.386,-28.571"/>
<polygon fill="black" stroke="black" points="143.966,-25.1115 133.428,-26.2085 142.35,-31.9224 143.966,-25.1115"/>
<text text-anchor="middle" x="316.406" y="-101.5" font-family="Times Roman,serif" font-size="10.00">GCC/Clang</text>
</g>
<!-- C++&#45;&gt;JavaScript -->
<g id="edge14" class="edge"><title>C++&#45;&gt;JavaScript</title>
<path fill="none" stroke="black" d="M332.094,-175.043C344.395,-164.019 362.393,-149.37 380.406,-140 404.728,-127.348 413.266,-130.264 439.406,-122 442.011,-121.177 444.682,-120.325 447.377,-119.461"/>
<polygon fill="black" stroke="black" points="448.72,-122.705 457.161,-116.302 446.57,-116.044 448.72,-122.705"/>
<text text-anchor="middle" x="407.906" y="-144.5" font-family="Times Roman,serif" font-size="10.00">Emscripten</text>
</g>
<!-- CLR -->
<g id="node28" class="node"><title>CLR</title>
<polygon fill="none" stroke="black" points="430.406,-122 376.406,-122 376.406,-86 430.406,-86 430.406,-122"/>
<text text-anchor="middle" x="403.406" y="-100.7" font-family="Times Roman,serif" font-size="12.00">CLR</text>
</g>
<!-- C++&#45;&gt;CLR -->
<g id="edge34" class="edge"><title>C++&#45;&gt;CLR</title>
<path fill="none" stroke="black" d="M317.879,-171.659C319.536,-161.378 323.036,-148.878 330.406,-140 339.848,-128.626 353.763,-120.536 366.918,-114.946"/>
<polygon fill="black" stroke="black" points="368.235,-118.189 376.289,-111.306 365.7,-111.664 368.235,-118.189"/>
</g>
<!-- CoffeeScript -->
<g id="node17" class="node"><title>CoffeeScript</title>
<ellipse fill="none" stroke="black" cx="497.406" cy="-190" rx="56.0446" ry="18"/>
<text text-anchor="middle" x="497.406" y="-186.7" font-family="Times Roman,serif" font-size="12.00">CoffeeScript</text>
</g>
<!-- CoffeeScript&#45;&gt;JavaScript -->
<g id="edge20" class="edge"><title>CoffeeScript&#45;&gt;JavaScript</title>
<path fill="none" stroke="black" d="M496.77,-171.762C496.372,-160.36 495.851,-145.434 495.4,-132.494"/>
<polygon fill="black" stroke="black" points="498.888,-132.084 495.041,-122.212 491.892,-132.328 498.888,-132.084"/>
</g>
<!-- Dart -->
<g id="node19" class="node"><title>Dart</title>
<ellipse fill="none" stroke="black" cx="598.406" cy="-190" rx="26.8013" ry="18"/>
<text text-anchor="middle" x="598.406" y="-186.7" font-family="Times Roman,serif" font-size="12.00">Dart</text>
</g>
<!-- Dart&#45;&gt;JavaScript -->
<g id="edge22" class="edge"><title>Dart&#45;&gt;JavaScript</title>
<path fill="none" stroke="black" d="M581.233,-175.799C565.823,-163.056 542.862,-144.069 524.422,-128.821"/>
<polygon fill="black" stroke="black" points="526.248,-125.789 516.311,-122.114 521.787,-131.184 526.248,-125.789"/>
</g>
<!-- Haxe -->
<g id="node21" class="node"><title>Haxe</title>
<ellipse fill="none" stroke="black" cx="349.406" cy="-264" rx="30.0465" ry="18"/>
<text text-anchor="middle" x="349.406" y="-260.7" font-family="Times Roman,serif" font-size="12.00">Haxe</text>
</g>
<!-- Haxe&#45;&gt;Java -->
<g id="edge28" class="edge"><title>Haxe&#45;&gt;Java</title>
<path fill="none" stroke="black" d="M321.633,-256.803C286.027,-247.239 222.647,-229.074 170.406,-208 168.608,-207.275 166.776,-206.495 164.94,-205.681"/>
<polygon fill="black" stroke="black" points="166.39,-202.496 155.85,-201.424 163.421,-208.835 166.39,-202.496"/>
</g>
<!-- Haxe&#45;&gt;JavaScript -->
<g id="edge24" class="edge"><title>Haxe&#45;&gt;JavaScript</title>
<path fill="none" stroke="black" d="M379.754,-262.724C446.441,-259.217 602.371,-246.942 634.406,-208 667.363,-167.937 593.494,-134.915 541.029,-117.455"/>
<polygon fill="black" stroke="black" points="542.105,-114.125 531.513,-114.378 539.951,-120.785 542.105,-114.125"/>
</g>
<!-- Haxe&#45;&gt;C++ -->
<g id="edge26" class="edge"><title>Haxe&#45;&gt;C++</title>
<path fill="none" stroke="black" d="M341.586,-246.463C337.64,-237.616 332.769,-226.693 328.366,-216.82"/>
<polygon fill="black" stroke="black" points="331.44,-215.119 324.17,-207.411 325.047,-217.97 331.44,-215.119"/>
</g>
<!-- C# -->
<g id="node26" class="node"><title>C#</title>
<ellipse fill="none" stroke="black" cx="396.406" cy="-190" rx="27" ry="18"/>
<text text-anchor="middle" x="396.406" y="-186.7" font-family="Times Roman,serif" font-size="12.00">C#</text>
</g>
<!-- Haxe&#45;&gt;C# -->
<g id="edge30" class="edge"><title>Haxe&#45;&gt;C#</title>
<path fill="none" stroke="black" d="M360.307,-246.837C366.222,-237.525 373.648,-225.832 380.225,-215.477"/>
<polygon fill="black" stroke="black" points="383.319,-217.133 385.726,-206.815 377.41,-213.38 383.319,-217.133"/>
</g>
<!-- C#&#45;&gt;JavaScript -->
<g id="edge36" class="edge"><title>C#&#45;&gt;JavaScript</title>
<path fill="none" stroke="black" d="M413.03,-175.411C427.521,-162.695 448.85,-143.977 466.037,-128.896"/>
<polygon fill="black" stroke="black" points="468.394,-131.483 473.602,-122.256 463.777,-126.222 468.394,-131.483"/>
<text text-anchor="middle" x="468.906" y="-144.5" font-family="Times Roman,serif" font-size="10.00">Script#</text>
</g>
<!-- C#&#45;&gt;CLR -->
<g id="edge32" class="edge"><title>C#&#45;&gt;CLR</title>
<path fill="none" stroke="black" d="M401.768,-172.217C403.256,-166.461 404.666,-160.01 405.406,-154 406.276,-146.932 406.384,-139.265 406.129,-132.106"/>
<polygon fill="black" stroke="black" points="409.622,-131.887 405.541,-122.11 402.634,-132.298 409.622,-131.887"/>
</g>
</g>
</svg>
