<?xml version="1.0" encoding="UTF-8" standalone="no"?>
<!-- Generated by graphviz version 2.26.3 (20100126.1600)
 -->

<!-- Title: Languages Pages: 1 -->

<svg
   xmlns:dc="http://purl.org/dc/elements/1.1/"
   xmlns:cc="http://creativecommons.org/ns#"
   xmlns:rdf="http://www.w3.org/1999/02/22-rdf-syntax-ns#"
   xmlns:svg="http://www.w3.org/2000/svg"
   xmlns="http://www.w3.org/2000/svg"
   xmlns:sodipodi="http://sodipodi.sourceforge.net/DTD/sodipodi-0.dtd"
   xmlns:inkscape="http://www.inkscape.org/namespaces/inkscape"
   width="1214.8917"
   height="525.48889"
   viewBox="0 0 700.00057 302.6816"
   id="svg2"
   version="1.1"
   inkscape:version="0.48.3.1 r9886"
   sodipodi:docname="languages.svg">
  <metadata
     id="metadata127">
    <rdf:RDF>
      <cc:Work
         rdf:about="">
        <dc:format>image/svg+xml</dc:format>
        <dc:type
           rdf:resource="http://purl.org/dc/dcmitype/StillImage" />
      </cc:Work>
    </rdf:RDF>
  </metadata>
  <defs
     id="defs125" />
  <sodipodi:namedview
     pagecolor="#ffffff"
     bordercolor="#666666"
     borderopacity="1"
     objecttolerance="10"
     gridtolerance="10"
     guidetolerance="10"
     inkscape:pageopacity="0"
     inkscape:pageshadow="2"
     inkscape:window-width="1548"
     inkscape:window-height="943"
     id="namedview123"
     showgrid="false"
     fit-margin-top="0"
     fit-margin-left="0"
     fit-margin-right="0"
     fit-margin-bottom="0"
     inkscape:zoom="0.45337159"
     inkscape:cx="436.83025"
     inkscape:cy="336.84334"
     inkscape:window-x="0"
     inkscape:window-y="0"
     inkscape:window-maximized="0"
     inkscape:current-layer="svg2" />
  <g
     id="graph1"
     class="graph"
     transform="matrix(1.38889,0,0,1.38889,6.250005,295.10472)">
    <title
       id="title5">Languages</title>
    <polygon
       points="-4,5 -4,-212 499,-212 499,5 -4,5 "
       id="polygon7"
       style="fill:#ffffff;stroke:#ffffff" />
    <!-- Java -->
    <g
       id="node1"
       class="node">
      <title
         id="title10">Java</title>
      <ellipse
         cx="164"
         cy="-190"
         rx="27"
         ry="18"
         id="ellipse12"
         d="m 191,-190 c 0,9.94113 -12.08831,18 -27,18 -14.91169,0 -27,-8.05887 -27,-18 0,-9.94113 12.08831,-18 27,-18 14.91169,0 27,8.05887 27,18 z"
         sodipodi:cx="164"
         sodipodi:cy="-190"
         sodipodi:rx="27"
         sodipodi:ry="18"
         style="fill:none;stroke:#000000" />
      <text
         x="164"
         y="-186.7"
         font-size="12.00"
         id="text14"
         style="font-size:12px;text-anchor:middle;font-family:'Times Roman,serif'">Java</text>
    </g>
    <!-- Java bytecode -->
    <g
       id="node3"
       class="node">
      <title
         id="title17">Java bytecode</title>
      <ellipse
         cx="242"
         cy="-104"
         rx="63.192799"
         ry="18"
         id="ellipse19"
         d="m 305.1928,-104 c 0,9.941125 -28.29238,18 -63.1928,18 -34.90042,0 -63.1928,-8.058875 -63.1928,-18 0,-9.94113 28.29238,-18 63.1928,-18 34.90042,0 63.1928,8.05887 63.1928,18 z"
         sodipodi:cx="242"
         sodipodi:cy="-104"
         sodipodi:rx="63.192799"
         sodipodi:ry="18"
         style="fill:none;stroke:#000000" />
      <text
         x="242"
         y="-100.7"
         font-size="12.00"
         id="text21"
         style="font-size:12px;text-anchor:middle;font-family:'Times Roman,serif'">Java bytecode</text>
    </g>
    <!-- Java&#45;&gt;Java bytecode -->
    <g
       id="edge2"
       class="edge">
      <title
         id="title24">Java-&gt;Java bytecode</title>
      <path
         d="m 174.323,-172.963 c 6.486,10.077 15.366,22.812 24.677,32.963 3.866,4.215 8.223,8.392 12.641,12.325"
         id="path26"
         inkscape:connector-curvature="0"
         style="fill:none;stroke:#000000" />
      <polygon
         points="219.567,-120.901 209.691,-124.737 214.239,-130.058 214.239,-130.058 "
         id="polygon28"
         style="fill:#000000;stroke:#000000" />
      <text
         x="211.5"
         y="-144.5"
         font-size="10.00"
         id="text30"
         style="font-size:10px;text-anchor:middle;font-family:'Times Roman,serif'">javac</text>
    </g>
    <!-- Machine code -->
    <g
       id="node5"
       class="node">
      <title
         id="title33">Machine code</title>
      <ellipse
         cx="144"
         cy="-18"
         rx="61.895302"
         ry="18"
         id="ellipse35"
         d="m 205.8953,-18 c 0,9.9411255 -27.71147,18 -61.8953,18 -34.18383,0 -61.895302,-8.0588745 -61.895302,-18 0,-9.941125 27.711472,-18 61.895302,-18 34.18383,0 61.8953,8.058875 61.8953,18 z"
         sodipodi:cx="144"
         sodipodi:cy="-18"
         sodipodi:rx="61.895302"
         sodipodi:ry="18"
         style="fill:none;stroke:#000000" />
      <text
         x="144"
         y="-14.7"
         font-size="12.00"
         id="text37"
         style="font-size:12px;text-anchor:middle;font-family:'Times Roman,serif'">Machine code</text>
    </g>
    <!-- Java&#45;&gt;Machine code -->
    <g
       id="edge4"
       class="edge">
      <title
         id="title40">Java-&gt;Machine code</title>
      <path
         d="m 160.692,-171.869 c -2.402,13.669 -5.588,32.898 -7.692,49.869 -3.171,25.5771 -5.596,54.8311 -7.126,75.784"
         id="path42"
         inkscape:connector-curvature="0"
         style="fill:none;stroke:#000000" />
      <polygon
         points="145.157,-36.0791 142.372,-46.3012 149.354,-45.807 149.354,-45.807 "
         id="polygon44"
         style="fill:#000000;stroke:#000000" />
      <text
         x="161.5"
         y="-101.5"
         font-size="10.00"
         id="text46"
         style="font-size:10px;text-anchor:middle;font-family:'Times Roman,serif'">GCJ</text>
    </g>
    <!-- Objective&#45;C -->
    <g
       id="node7"
       class="node">
      <title
         id="title49">Objective-C</title>
      <ellipse
         cx="54"
         cy="-104"
         rx="53.945202"
         ry="18"
         id="ellipse51"
         d="m 107.9452,-104 c 0,9.941125 -24.152088,18 -53.9452,18 -29.793112,0 -53.94520187,-8.058875 -53.94520187,-18 0,-9.94113 24.15208987,-18 53.94520187,-18 29.793112,0 53.9452,8.05887 53.9452,18 z"
         sodipodi:cx="54"
         sodipodi:cy="-104"
         sodipodi:rx="53.945202"
         sodipodi:ry="18"
         style="fill:none;stroke:#000000" />
      <text
         x="54"
         y="-100.7"
         font-size="12.00"
         id="text53"
         style="font-size:12px;text-anchor:middle;font-family:'Times Roman,serif'">Objective-C</text>
    </g>
    <!-- Java&#45;&gt;Objective&#45;C -->
    <g
       id="edge6"
       class="edge">
      <title
         id="title56">Java-&gt;Objective-C</title>
      <path
         d="m 142.105,-179.228 c -12.319,6.526 -27.675,15.462 -40.105,25.228 -9.4178,7.399 -18.7681,16.603 -26.6799,25.089"
         id="path58"
         inkscape:connector-curvature="0"
         style="fill:none;stroke:#000000" />
      <polygon
         points="68.498,-121.391 72.6249,-131.149 77.8094,-126.445 77.8094,-126.445 "
         id="polygon60"
         style="fill:#000000;stroke:#000000" />
      <text
         x="116"
         y="-144.5"
         font-size="10.00"
         id="text62"
         style="font-size:10px;text-anchor:middle;font-family:'Times Roman,serif'">j2objc</text>
    </g>
    <!-- JavaScript -->
    <g
       id="node9"
       class="node">
      <title
         id="title65">JavaScript</title>
      <ellipse
         cx="371"
         cy="-104"
         rx="48.095699"
         ry="18"
         id="ellipse67"
         d="m 419.0957,-104 c 0,9.941125 -21.53318,18 -48.0957,18 -26.56252,0 -48.0957,-8.058875 -48.0957,-18 0,-9.94113 21.53318,-18 48.0957,-18 26.56252,0 48.0957,8.05887 48.0957,18 z"
         sodipodi:cx="371"
         sodipodi:cy="-104"
         sodipodi:rx="48.095699"
         sodipodi:ry="18"
         style="fill:none;stroke:#000000" />
      <text
         x="371"
         y="-100.7"
         font-size="12.00"
         id="text69"
         style="font-size:12px;text-anchor:middle;font-family:'Times Roman,serif'">JavaScript</text>
    </g>
    <!-- Java&#45;&gt;JavaScript -->
    <g
       id="edge8"
       class="edge">
      <title
         id="title72">Java-&gt;JavaScript</title>
      <path
         d="m 186.095,-179.1 c 21.659,10.524 55.725,26.653 85.905,39.1 17.384,7.17 36.774,14.387 53.754,20.458"
         id="path74"
         inkscape:connector-curvature="0"
         style="fill:none;stroke:#000000" />
      <polygon
         points="335.44,-116.109 324.845,-116.151 327.184,-122.749 327.184,-122.749 "
         id="polygon76"
         style="fill:#000000;stroke:#000000" />
      <text
         x="283"
         y="-144.5"
         font-size="10.00"
         id="text78"
         style="font-size:10px;text-anchor:middle;font-family:'Times Roman,serif'">GWT</text>
    </g>
    <!-- Objective&#45;C&#45;&gt;Machine code -->
    <g
       id="edge16"
       class="edge">
      <title
         id="title81">Objective-C-&gt;Machine code</title>
      <path
         d="M 60.4684,-85.7499 C 64.7912,-75.4998 71.2912,-62.9998 80,-54 c 5.7346,5.9262 12.6575,11.1561 19.802,15.6632"
         id="path83"
         inkscape:connector-curvature="0"
         style="fill:none;stroke:#000000" />
      <polygon
         points="108.897,-33.0164 98.4985,-35.0445 102.033,-41.0867 102.033,-41.0867 "
         id="polygon85"
         style="fill:#000000;stroke:#000000" />
      <text
         x="105"
         y="-58.5"
         font-size="10.00"
         id="text87"
         style="font-size:10px;text-anchor:middle;font-family:'Times Roman,serif'">GCC/clang</text>
    </g>
    <!-- C++ -->
    <g
       id="node10"
       class="node">
      <title
         id="title90">C++</title>
      <ellipse
         cx="371"
         cy="-190"
         rx="28.0958"
         ry="18"
         id="ellipse92"
         d="m 399.0958,-190 c 0,9.94113 -12.57892,18 -28.0958,18 -15.51688,0 -28.0958,-8.05887 -28.0958,-18 0,-9.94113 12.57892,-18 28.0958,-18 15.51688,0 28.0958,8.05887 28.0958,18 z"
         sodipodi:cx="371"
         sodipodi:cy="-190"
         sodipodi:rx="28.0958"
         sodipodi:ry="18"
         style="fill:none;stroke:#000000" />
      <text
         x="371"
         y="-186.7"
         font-size="12.00"
         id="text94"
         style="font-size:12px;text-anchor:middle;font-family:'Times Roman,serif'">C++</text>
    </g>
    <!-- C++&#45;&gt;Java bytecode -->
    <g
       id="edge14"
       class="edge">
      <title
         id="title97">C++-&gt;Java bytecode</title>
      <path
         d="m 351.408,-176.938 c -20.088,13.391 -51.712,34.474 -75.806,50.536"
         id="path99"
         inkscape:connector-curvature="0"
         style="fill:none;stroke:#000000" />
      <polygon
         points="267.102,-120.735 273.481,-129.194 277.364,-123.37 277.364,-123.37 "
         id="polygon101"
         style="fill:#000000;stroke:#000000" />
      <text
         x="325.5"
         y="-144.5"
         font-size="10.00"
         id="text103"
         style="font-size:10px;text-anchor:middle;font-family:'Times Roman,serif'">Cibyl</text>
    </g>
    <!-- C++&#45;&gt;Machine code -->
    <g
       id="edge10"
       class="edge">
      <title
         id="title106">C++-&gt;Machine code</title>
      <path
         d="m 396.074,-181.505 c 12.573,5.678 26.643,14.53 33.926,27.505 7.772,13.848 25.103,34.919 -2,68 -26.852,32.7737 -139.699,51.7381 -214.805,60.9549"
         id="path108"
         inkscape:connector-curvature="0"
         style="fill:none;stroke:#000000" />
      <polygon
         points="202.86,-23.8089 212.374,-28.4719 213.205,-21.5215 213.205,-21.5215 "
         id="polygon110"
         style="fill:#000000;stroke:#000000" />
      <text
         x="468"
         y="-101.5"
         font-size="10.00"
         id="text112"
         style="font-size:10px;text-anchor:middle;font-family:'Times Roman,serif'">GCC/Clang</text>
    </g>
    <!-- C++&#45;&gt;JavaScript -->
    <g
       id="edge12"
       class="edge">
      <title
         id="title115">C++-&gt;JavaScript</title>
      <path
         d="m 371,-171.762 c 0,11.402 0,26.328 0,39.268"
         id="path117"
         inkscape:connector-curvature="0"
         style="fill:none;stroke:#000000" />
      <polygon
         points="371,-122.212 367.5,-132.212 374.5,-132.212 374.5,-132.212 "
         id="polygon119"
         style="fill:#000000;stroke:#000000" />
      <text
         x="398.5"
         y="-144.5"
         font-size="10.00"
         id="text121"
         style="font-size:10px;text-anchor:middle;font-family:'Times Roman,serif'">Emscripten</text>
    </g>
  </g>
</svg>
