<?xml version="1.0" encoding="UTF-8" standalone="no"?>
<!DOCTYPE svg PUBLIC "-//W3C//DTD SVG 1.1//EN"
 "http://www.w3.org/Graphics/SVG/1.1/DTD/svg11.dtd">
<!-- Generated by graphviz version 2.26.3 (20100126.1600)
 -->
<!-- Title: Languages Pages: 1 -->
<svg width="632pt" height="290pt"
 viewBox="0.00 0.00 632.00 290.00" xmlns="http://www.w3.org/2000/svg" xmlns:xlink="http://www.w3.org/1999/xlink">
<g id="graph1" class="graph" transform="scale(1 1) rotate(0) translate(4 286)">
<title>Languages</title>
<polygon fill="white" stroke="white" points="-4,5 -4,-286 629,-286 629,5 -4,5"/>
<!-- Java -->
<g id="node1" class="node"><title>Java</title>
<ellipse fill="none" stroke="black" cx="182" cy="-190" rx="27" ry="18"/>
<text text-anchor="middle" x="182" y="-186.7" font-family="Times Roman,serif" font-size="12.00">Java</text>
</g>
<!-- Java bytecode -->
<g id="node3" class="node"><title>Java bytecode</title>
<polygon fill="none" stroke="black" points="277,-122 179,-122 179,-86 277,-86 277,-122"/>
<text text-anchor="middle" x="228" y="-100.7" font-family="Times Roman,serif" font-size="12.00">Java bytecode</text>
</g>
<!-- Java&#45;&gt;Java bytecode -->
<g id="edge2" class="edge"><title>Java&#45;&gt;Java bytecode</title>
<path fill="none" stroke="black" d="M178.769,-172.005C177.845,-162.078 178.163,-149.812 183,-140 184.891,-136.164 187.406,-132.605 190.283,-129.338"/>
<polygon fill="black" stroke="black" points="192.827,-131.744 197.53,-122.25 187.933,-126.74 192.827,-131.744"/>
<text text-anchor="middle" x="195.5" y="-144.5" font-family="Times Roman,serif" font-size="10.00">javac</text>
</g>
<!-- Machine code -->
<g id="node5" class="node"><title>Machine code</title>
<polygon fill="none" stroke="black" points="192,-36 96,-36 96,-1.77636e-14 192,-3.55271e-15 192,-36"/>
<text text-anchor="middle" x="144" y="-14.7" font-family="Times Roman,serif" font-size="12.00">Machine code</text>
</g>
<!-- Java&#45;&gt;Machine code -->
<g id="edge4" class="edge"><title>Java&#45;&gt;Machine code</title>
<path fill="none" stroke="black" d="M172.915,-172.917C166.214,-159.473 157.509,-140.055 153,-122 146.756,-96.995 144.672,-67.6774 144.053,-46.555"/>
<polygon fill="black" stroke="black" points="147.547,-46.2507 143.848,-36.3227 140.549,-46.3906 147.547,-46.2507"/>
<text text-anchor="middle" x="161.5" y="-101.5" font-family="Times Roman,serif" font-size="10.00">GCJ</text>
</g>
<!-- Objective&#45;C -->
<g id="node7" class="node"><title>Objective&#45;C</title>
<ellipse fill="none" stroke="black" cx="54" cy="-104" rx="53.9452" ry="18"/>
<text text-anchor="middle" x="54" y="-100.7" font-family="Times Roman,serif" font-size="12.00">Objective&#45;C</text>
</g>
<!-- Java&#45;&gt;Objective&#45;C -->
<g id="edge6" class="edge"><title>Java&#45;&gt;Objective&#45;C</title>
<path fill="none" stroke="black" d="M157.625,-181.827C141.08,-175.63 119.175,-166.115 102,-154 92.2131,-147.096 82.7806,-138.003 74.9064,-129.466"/>
<polygon fill="black" stroke="black" points="77.4068,-127.011 68.1476,-121.861 72.1746,-131.661 77.4068,-127.011"/>
<text text-anchor="middle" x="116" y="-144.5" font-family="Times Roman,serif" font-size="10.00">j2objc</text>
</g>
<!-- JavaScript -->
<g id="node9" class="node"><title>JavaScript</title>
<polygon fill="none" stroke="black" points="457,-122 383,-122 383,-86 457,-86 457,-122"/>
<text text-anchor="middle" x="420" y="-100.7" font-family="Times Roman,serif" font-size="12.00">JavaScript</text>
</g>
<!-- Java&#45;&gt;JavaScript -->
<g id="edge8" class="edge"><title>Java&#45;&gt;JavaScript</title>
<path fill="none" stroke="black" d="M204.036,-179.387C227.267,-168.483 265.12,-151.521 299,-140 329.413,-129.658 338.269,-131.355 369,-122 370.404,-121.573 371.826,-121.131 373.259,-120.677"/>
<polygon fill="black" stroke="black" points="374.387,-123.991 382.801,-117.553 372.208,-117.338 374.387,-123.991"/>
<text text-anchor="middle" x="310" y="-144.5" font-family="Times Roman,serif" font-size="10.00">GWT</text>
</g>
<!-- Objective&#45;C&#45;&gt;Machine code -->
<g id="edge16" class="edge"><title>Objective&#45;C&#45;&gt;Machine code</title>
<path fill="none" stroke="black" d="M60.4684,-85.7499C64.7912,-75.4998 71.2912,-62.9998 80,-54 84.4214,-49.4308 89.5493,-45.2755 94.9405,-41.5463"/>
<polygon fill="black" stroke="black" points="97.0209,-44.3706 103.565,-36.0387 93.2535,-38.4709 97.0209,-44.3706"/>
<text text-anchor="middle" x="105" y="-58.5" font-family="Times Roman,serif" font-size="10.00">GCC/clang</text>
</g>
<!-- C++ -->
<g id="node10" class="node"><title>C++</title>
<ellipse fill="none" stroke="black" cx="284" cy="-190" rx="28.0958" ry="18"/>
<text text-anchor="middle" x="284" y="-186.7" font-family="Times Roman,serif" font-size="12.00">C++</text>
</g>
<!-- C++&#45;&gt;Java bytecode -->
<g id="edge14" class="edge"><title>C++&#45;&gt;Java bytecode</title>
<path fill="none" stroke="black" d="M260.331,-179.991C249.455,-174.094 237.543,-165.507 231,-154 227.319,-147.526 225.765,-139.788 225.327,-132.356"/>
<polygon fill="black" stroke="black" points="228.827,-132.224 225.345,-122.217 221.827,-132.211 228.827,-132.224"/>
<text text-anchor="middle" x="242.5" y="-144.5" font-family="Times Roman,serif" font-size="10.00">Cibyl</text>
</g>
<!-- C++&#45;&gt;Machine code -->
<g id="edge10" class="edge"><title>C++&#45;&gt;Machine code</title>
<path fill="none" stroke="black" d="M292.76,-172.86C295.297,-167.03 297.725,-160.374 299,-154 305.034,-123.828 305.353,-109.921 286,-86 264.839,-59.844 231.2,-43.1201 201.974,-32.8049"/>
<polygon fill="black" stroke="black" points="202.85,-29.4072 192.256,-29.548 200.626,-36.0443 202.85,-29.4072"/>
<text text-anchor="middle" x="328" y="-101.5" font-family="Times Roman,serif" font-size="10.00">GCC/Clang</text>
</g>
<!-- C++&#45;&gt;JavaScript -->
<g id="edge12" class="edge"><title>C++&#45;&gt;JavaScript</title>
<path fill="none" stroke="black" d="M300.49,-175.17C314.714,-162.541 334.297,-145.58 343,-140 352.511,-133.901 363.22,-128.231 373.56,-123.277"/>
<polygon fill="black" stroke="black" points="375.311,-126.324 382.907,-118.938 372.363,-119.974 375.311,-126.324"/>
<text text-anchor="middle" x="370.5" y="-144.5" font-family="Times Roman,serif" font-size="10.00">Emscripten</text>
</g>
<!-- CoffeeScript -->
<g id="node15" class="node"><title>CoffeeScript</title>
<ellipse fill="none" stroke="black" cx="386" cy="-190" rx="56.0446" ry="18"/>
<text text-anchor="middle" x="386" y="-186.7" font-family="Times Roman,serif" font-size="12.00">CoffeeScript</text>
</g>
<!-- CoffeeScript&#45;&gt;JavaScript -->
<g id="edge18" class="edge"><title>CoffeeScript&#45;&gt;JavaScript</title>
<path fill="none" stroke="black" d="M394.234,-172.164C396.81,-166.404 399.604,-159.966 402,-154 404.884,-146.819 407.81,-138.977 410.442,-131.676"/>
<polygon fill="black" stroke="black" points="413.769,-132.766 413.816,-122.171 407.172,-130.424 413.769,-132.766"/>
</g>
<!-- Dart -->
<g id="node17" class="node"><title>Dart</title>
<ellipse fill="none" stroke="black" cx="487" cy="-190" rx="26.8013" ry="18"/>
<text text-anchor="middle" x="487" y="-186.7" font-family="Times Roman,serif" font-size="12.00">Dart</text>
</g>
<!-- Dart&#45;&gt;JavaScript -->
<g id="edge20" class="edge"><title>Dart&#45;&gt;JavaScript</title>
<path fill="none" stroke="black" d="M474.398,-173.824C464.828,-161.541 451.47,-144.395 440.387,-130.168"/>
<polygon fill="black" stroke="black" points="443.076,-127.925 434.169,-122.187 437.554,-132.227 443.076,-127.925"/>
</g>
<!-- Haxe -->
<g id="node19" class="node"><title>Haxe</title>
<ellipse fill="none" stroke="black" cx="471" cy="-264" rx="30.0465" ry="18"/>
<text text-anchor="middle" x="471" y="-260.7" font-family="Times Roman,serif" font-size="12.00">Haxe</text>
</g>
<!-- Haxe&#45;&gt;Java -->
<g id="edge26" class="edge"><title>Haxe&#45;&gt;Java</title>
<path fill="none" stroke="black" d="M443.005,-257.241C400.545,-246.936 317.356,-226.533 247,-208 237.167,-205.41 226.527,-202.506 216.757,-199.799"/>
<polygon fill="black" stroke="black" points="217.534,-196.382 206.962,-197.071 215.656,-203.126 217.534,-196.382"/>
</g>
<!-- Haxe&#45;&gt;JavaScript -->
<g id="edge22" class="edge"><title>Haxe&#45;&gt;JavaScript</title>
<path fill="none" stroke="black" d="M489.956,-249.916C501.931,-239.767 516.356,-224.919 523,-208 528.848,-193.107 530.581,-186.09 523,-172 510.829,-149.38 487.472,-133.034 466.073,-122.046"/>
<polygon fill="black" stroke="black" points="467.584,-118.889 457.06,-117.662 464.522,-125.184 467.584,-118.889"/>
</g>
<!-- Haxe&#45;&gt;C++ -->
<g id="edge24" class="edge"><title>Haxe&#45;&gt;C++</title>
<path fill="none" stroke="black" d="M444.687,-255.034C414.499,-244.55 363.665,-226.293 321,-208 319.178,-207.219 317.316,-206.396 315.445,-205.548"/>
<polygon fill="black" stroke="black" points="316.687,-202.265 306.146,-201.199 313.721,-208.606 316.687,-202.265"/>
</g>
<!-- C# -->
<g id="node24" class="node"><title>C#</title>
<ellipse fill="none" stroke="black" cx="597" cy="-190" rx="27" ry="18"/>
<text text-anchor="middle" x="597" y="-186.7" font-family="Times Roman,serif" font-size="12.00">C#</text>
</g>
<!-- Haxe&#45;&gt;C# -->
<g id="edge28" class="edge"><title>Haxe&#45;&gt;C#</title>
<path fill="none" stroke="black" d="M497.457,-255.487C514.853,-249.256 537.698,-239.835 556,-228 562.723,-223.652 569.371,-218.16 575.294,-212.713"/>
<polygon fill="black" stroke="black" points="578.087,-214.883 582.861,-205.424 573.23,-209.841 578.087,-214.883"/>
</g>
<!-- CLR -->
<g id="node26" class="node"><title>CLR</title>
<polygon fill="none" stroke="black" points="624,-122 570,-122 570,-86 624,-86 624,-122"/>
<text text-anchor="middle" x="597" y="-100.7" font-family="Times Roman,serif" font-size="12.00">CLR</text>
</g>
<!-- C#&#45;&gt;CLR -->
<g id="edge30" class="edge"><title>C#&#45;&gt;CLR</title>
<path fill="none" stroke="black" d="M597,-171.762C597,-160.36 597,-145.434 597,-132.494"/>
<polygon fill="black" stroke="black" points="600.5,-132.212 597,-122.212 593.5,-132.212 600.5,-132.212"/>
</g>
</g>
</svg>
