<?xml version="1.0" encoding="UTF-8" standalone="no"?>
<!DOCTYPE svg PUBLIC "-//W3C//DTD SVG 1.1//EN"
 "http://www.w3.org/Graphics/SVG/1.1/DTD/svg11.dtd">
<!-- Generated by graphviz version 2.26.3 (20100126.1600)
 -->
<!-- Title: Languages Pages: 1 -->
<svg width="675pt" height="290pt"
 viewBox="0.00 0.00 675.00 290.00" xmlns="http://www.w3.org/2000/svg" xmlns:xlink="http://www.w3.org/1999/xlink">
<g id="graph1" class="graph" transform="scale(1 1) rotate(0) translate(4 286)">
<title>Languages</title>
<polygon fill="white" stroke="white" points="-4,5 -4,-286 672,-286 672,5 -4,5"/>
<!-- Java -->
<g id="node1" class="node"><title>Java</title>
<ellipse fill="none" stroke="black" cx="319" cy="-190" rx="27" ry="18"/>
<text text-anchor="middle" x="319" y="-186.7" font-family="Times Roman,serif" font-size="12.00">Java</text>
</g>
<!-- Java bytecode -->
<g id="node3" class="node"><title>Java bytecode</title>
<polygon fill="none" stroke="black" points="478,-122 380,-122 380,-86 478,-86 478,-122"/>
<text text-anchor="middle" x="429" y="-100.7" font-family="Times Roman,serif" font-size="12.00">Java bytecode</text>
</g>
<!-- Java&#45;&gt;Java bytecode -->
<g id="edge2" class="edge"><title>Java&#45;&gt;Java bytecode</title>
<path fill="none" stroke="black" d="M336.673,-176.183C353.041,-163.387 377.758,-144.062 397.5,-128.628"/>
<polygon fill="black" stroke="black" points="399.895,-131.198 405.617,-122.281 395.583,-125.683 399.895,-131.198"/>
</g>
<!-- Machine code -->
<g id="node7" class="node"><title>Machine code</title>
<polygon fill="none" stroke="black" points="393,-36 297,-36 297,-1.77636e-14 393,-3.55271e-15 393,-36"/>
<text text-anchor="middle" x="345" y="-14.7" font-family="Times Roman,serif" font-size="12.00">Machine code</text>
</g>
<!-- Java&#45;&gt;Machine code -->
<g id="edge6" class="edge"><title>Java&#45;&gt;Machine code</title>
<path fill="none" stroke="black" d="M321.733,-171.918C326.259,-141.981 335.341,-81.8972 340.722,-46.2989"/>
<polygon fill="black" stroke="black" points="344.23,-46.5086 342.264,-36.0977 337.309,-45.4623 344.23,-46.5086"/>
<text text-anchor="middle" x="343.5" y="-101.5" font-family="Times Roman,serif" font-size="10.00">GCJ</text>
</g>
<!-- Objective&#45;C -->
<g id="node9" class="node"><title>Objective&#45;C</title>
<ellipse fill="none" stroke="black" cx="255" cy="-104" rx="53.9452" ry="18"/>
<text text-anchor="middle" x="255" y="-100.7" font-family="Times Roman,serif" font-size="12.00">Objective&#45;C</text>
</g>
<!-- Java&#45;&gt;Objective&#45;C -->
<g id="edge8" class="edge"><title>Java&#45;&gt;Objective&#45;C</title>
<path fill="none" stroke="black" d="M306.962,-173.824C297.786,-161.494 284.965,-144.265 274.354,-130.007"/>
<polygon fill="black" stroke="black" points="276.863,-127.516 268.085,-121.583 271.248,-131.695 276.863,-127.516"/>
<text text-anchor="middle" x="305" y="-144.5" font-family="Times Roman,serif" font-size="10.00">j2objc</text>
</g>
<!-- JavaScript -->
<g id="node11" class="node"><title>JavaScript</title>
<polygon fill="none" stroke="black" points="183,-122 109,-122 109,-86 183,-86 183,-122"/>
<text text-anchor="middle" x="146" y="-100.7" font-family="Times Roman,serif" font-size="12.00">JavaScript</text>
</g>
<!-- Java&#45;&gt;JavaScript -->
<g id="edge10" class="edge"><title>Java&#45;&gt;JavaScript</title>
<path fill="none" stroke="black" d="M297.912,-178.307C278.986,-167.926 250.364,-152.51 225,-140 214.545,-134.843 203.197,-129.517 192.449,-124.593"/>
<polygon fill="black" stroke="black" points="193.747,-121.339 183.196,-120.385 190.849,-127.711 193.747,-121.339"/>
<text text-anchor="middle" x="263" y="-144.5" font-family="Times Roman,serif" font-size="10.00">GWT</text>
</g>
<!-- Scala -->
<g id="node4" class="node"><title>Scala</title>
<ellipse fill="none" stroke="black" cx="394" cy="-190" rx="30.0465" ry="18"/>
<text text-anchor="middle" x="394" y="-186.7" font-family="Times Roman,serif" font-size="12.00">Scala</text>
</g>
<!-- Scala&#45;&gt;Java bytecode -->
<g id="edge4" class="edge"><title>Scala&#45;&gt;Java bytecode</title>
<path fill="none" stroke="black" d="M397.852,-172.038C400.221,-162.346 403.642,-150.293 408,-140 409.23,-137.095 410.65,-134.136 412.16,-131.225"/>
<polygon fill="black" stroke="black" points="415.368,-132.657 417.165,-122.216 409.249,-129.258 415.368,-132.657"/>
</g>
<!-- Objective&#45;C&#45;&gt;Machine code -->
<g id="edge18" class="edge"><title>Objective&#45;C&#45;&gt;Machine code</title>
<path fill="none" stroke="black" d="M261.468,-85.7499C265.791,-75.4998 272.291,-62.9998 281,-54 285.421,-49.4308 290.549,-45.2755 295.94,-41.5463"/>
<polygon fill="black" stroke="black" points="298.021,-44.3706 304.565,-36.0387 294.254,-38.4709 298.021,-44.3706"/>
<text text-anchor="middle" x="306" y="-58.5" font-family="Times Roman,serif" font-size="10.00">GCC/clang</text>
</g>
<!-- C++ -->
<g id="node12" class="node"><title>C++</title>
<ellipse fill="none" stroke="black" cx="505" cy="-190" rx="28.0958" ry="18"/>
<text text-anchor="middle" x="505" y="-186.7" font-family="Times Roman,serif" font-size="12.00">C++</text>
</g>
<!-- C++&#45;&gt;Java bytecode -->
<g id="edge16" class="edge"><title>C++&#45;&gt;Java bytecode</title>
<path fill="none" stroke="black" d="M499.856,-171.971C496.308,-161.795 490.808,-149.295 483,-140 479.422,-135.74 475.215,-131.784 470.755,-128.174"/>
<polygon fill="black" stroke="black" points="472.648,-125.219 462.536,-122.056 468.468,-130.835 472.648,-125.219"/>
<text text-anchor="middle" x="502.5" y="-144.5" font-family="Times Roman,serif" font-size="10.00">Cibyl</text>
</g>
<!-- C++&#45;&gt;Machine code -->
<g id="edge12" class="edge"><title>C++&#45;&gt;Machine code</title>
<path fill="none" stroke="black" d="M513.905,-172.862C517.808,-163.203 520.912,-150.92 518,-140 510.87,-113.261 507.284,-104.826 487,-86 463.075,-63.7947 430.571,-47.5089 402.698,-36.452"/>
<polygon fill="black" stroke="black" points="403.644,-33.0665 393.054,-32.758 401.14,-39.6034 403.644,-33.0665"/>
<text text-anchor="middle" x="538" y="-101.5" font-family="Times Roman,serif" font-size="10.00">GCC/Clang</text>
</g>
<!-- C++&#45;&gt;JavaScript -->
<g id="edge14" class="edge"><title>C++&#45;&gt;JavaScript</title>
<path fill="none" stroke="black" d="M479.637,-181.891C444.701,-170.986 379.656,-151.622 323,-140 268.466,-128.813 250.733,-135.959 193.16,-121.937"/>
<polygon fill="black" stroke="black" points="193.716,-118.467 183.162,-119.391 191.989,-125.25 193.716,-118.467"/>
<text text-anchor="middle" x="405.5" y="-144.5" font-family="Times Roman,serif" font-size="10.00">Emscripten</text>
</g>
<!-- CLR -->
<g id="node28" class="node"><title>CLR</title>
<polygon fill="none" stroke="black" points="667,-122 613,-122 613,-86 667,-86 667,-122"/>
<text text-anchor="middle" x="640" y="-100.7" font-family="Times Roman,serif" font-size="12.00">CLR</text>
</g>
<!-- C++&#45;&gt;CLR -->
<g id="edge34" class="edge"><title>C++&#45;&gt;CLR</title>
<path fill="none" stroke="black" d="M524.92,-177.31C545.652,-164.103 578.569,-143.134 603.898,-126.998"/>
<polygon fill="black" stroke="black" points="605.954,-129.838 612.508,-121.514 602.193,-123.934 605.954,-129.838"/>
</g>
<!-- CoffeeScript -->
<g id="node17" class="node"><title>CoffeeScript</title>
<ellipse fill="none" stroke="black" cx="56" cy="-190" rx="56.0446" ry="18"/>
<text text-anchor="middle" x="56" y="-186.7" font-family="Times Roman,serif" font-size="12.00">CoffeeScript</text>
</g>
<!-- CoffeeScript&#45;&gt;JavaScript -->
<g id="edge20" class="edge"><title>CoffeeScript&#45;&gt;JavaScript</title>
<path fill="none" stroke="black" d="M74.2128,-172.597C87.2472,-160.142 104.996,-143.182 119.584,-129.242"/>
<polygon fill="black" stroke="black" points="122.07,-131.707 126.882,-122.268 117.234,-126.646 122.07,-131.707"/>
</g>
<!-- Dart -->
<g id="node19" class="node"><title>Dart</title>
<ellipse fill="none" stroke="black" cx="157" cy="-190" rx="26.8013" ry="18"/>
<text text-anchor="middle" x="157" y="-186.7" font-family="Times Roman,serif" font-size="12.00">Dart</text>
</g>
<!-- Dart&#45;&gt;JavaScript -->
<g id="edge22" class="edge"><title>Dart&#45;&gt;JavaScript</title>
<path fill="none" stroke="black" d="M154.667,-171.762C153.209,-160.36 151.3,-145.434 149.645,-132.494"/>
<polygon fill="black" stroke="black" points="153.07,-131.687 148.329,-122.212 146.127,-132.575 153.07,-131.687"/>
</g>
<!-- Haxe -->
<g id="node21" class="node"><title>Haxe</title>
<ellipse fill="none" stroke="black" cx="409" cy="-264" rx="30.0465" ry="18"/>
<text text-anchor="middle" x="409" y="-260.7" font-family="Times Roman,serif" font-size="12.00">Haxe</text>
</g>
<!-- Haxe&#45;&gt;Java -->
<g id="edge28" class="edge"><title>Haxe&#45;&gt;Java</title>
<path fill="none" stroke="black" d="M391.219,-249.38C377.733,-238.292 359.023,-222.908 344.026,-210.577"/>
<polygon fill="black" stroke="black" points="346.081,-207.735 336.134,-204.088 341.635,-213.142 346.081,-207.735"/>
</g>
<!-- Haxe&#45;&gt;JavaScript -->
<g id="edge24" class="edge"><title>Haxe&#45;&gt;JavaScript</title>
<path fill="none" stroke="black" d="M383.043,-254.502C356.949,-244.49 315.973,-227.487 283,-208 243.161,-184.456 201.352,-151.306 174.557,-128.808"/>
<polygon fill="black" stroke="black" points="176.635,-125.981 166.742,-122.19 172.111,-131.323 176.635,-125.981"/>
</g>
<!-- Haxe&#45;&gt;C++ -->
<g id="edge26" class="edge"><title>Haxe&#45;&gt;C++</title>
<path fill="none" stroke="black" d="M427.51,-249.732C442.079,-238.502 462.565,-222.71 478.815,-210.184"/>
<polygon fill="black" stroke="black" points="481.089,-212.85 486.873,-203.973 476.816,-207.306 481.089,-212.85"/>
</g>
<!-- C# -->
<g id="node26" class="node"><title>C#</title>
<ellipse fill="none" stroke="black" cx="603" cy="-190" rx="27" ry="18"/>
<text text-anchor="middle" x="603" y="-186.7" font-family="Times Roman,serif" font-size="12.00">C#</text>
</g>
<!-- Haxe&#45;&gt;C# -->
<g id="edge30" class="edge"><title>Haxe&#45;&gt;C#</title>
<path fill="none" stroke="black" d="M434.362,-254.326C469.058,-241.091 531.382,-217.318 569.772,-202.674"/>
<polygon fill="black" stroke="black" points="571.358,-205.816 579.454,-198.981 568.863,-199.275 571.358,-205.816"/>
</g>
<!-- C#&#45;&gt;CLR -->
<g id="edge32" class="edge"><title>C#&#45;&gt;CLR</title>
<path fill="none" stroke="black" d="M610.488,-172.597C615.551,-160.827 622.345,-145.035 628.138,-131.57"/>
<polygon fill="black" stroke="black" points="631.403,-132.837 632.141,-122.268 624.973,-130.071 631.403,-132.837"/>
</g>
</g>
</svg>
